<svg id="ba5ea505-2288-4228-9d1d-362310ee2946" data-name="Layer 1" xmlns="http://www.w3.org/2000/svg" xmlns:xlink="http://www.w3.org/1999/xlink" width="865.76" height="682.89" viewBox="0 0 865.76 682.89"><defs><clipPath id="f3a3ef72-fffc-474b-858a-4ec4349bcf7e"><path id="bfe8b543-fd0e-4cd7-8333-e4bafa40357a" data-name="SVGID" d="M683.83,417.73c47.91-23.93,54.36-119.21,54.92-159.17a107.12,107.12,0,0,0-14.82-56.41C682.57,133,586.2,149.5,586.2,149.5,507.47,164,451.15,123.29,451.15,123.29,381.56,88.58,342.36,78.83,342.36,78.83c-152.78-24.19-235.26,82-235.26,82C-6.47,319.61,127.82,486.27,127.82,486.27s118.3-47.13,272.3-42.1L612.36,449Z" fill="none"/></clipPath></defs><path d="M77.84,575.59a69.17,69.17,0,0,1-19.05-6.77c-19.6-10.52-42.63-35.93,58.68-79.1,0,0,62.91-24.41,149.57-37.77,0,0,61.63-8.84,103.64-8.13l170.57,4.41s238.91,32.13,257.8,91.95c0,0,23.3,48.48-169.37,72.41,0,0-100.74,6.29-82.48-34C547.2,578.58,303.62,621.44,77.84,575.59Z" fill="#0AA8A7"/><path d="M77.84,575.59a69.17,69.17,0,0,1-19.05-6.77c-19.6-10.52-42.63-35.93,58.68-79.1,0,0,62.91-24.41,149.57-37.77,0,0,61.63-8.84,103.64-8.13l170.57,4.41s238.91,32.13,257.8,91.95c0,0,23.3,48.48-169.37,72.41,0,0-100.74,6.29-82.48-34C547.2,578.58,303.62,621.44,77.84,575.59Z" fill="#fff" opacity="0.8"/><path d="M683.83,417.73c47.91-23.93,54.36-119.21,54.92-159.17a107.12,107.12,0,0,0-14.82-56.41C682.57,133,586.2,149.5,586.2,149.5,507.47,164,451.15,123.29,451.15,123.29,381.56,88.58,342.36,78.83,342.36,78.83c-152.78-24.19-235.26,82-235.26,82C-6.47,319.61,127.82,486.27,127.82,486.27s118.3-47.13,272.3-42.1L612.36,449Z" fill="#0AA8A7"/><path d="M683.83,417.73c47.91-23.93,54.36-119.21,54.92-159.17a107.12,107.12,0,0,0-14.82-56.41C682.57,133,586.2,149.5,586.2,149.5,507.47,164,451.15,123.29,451.15,123.29,381.56,88.58,342.36,78.83,342.36,78.83c-152.78-24.19-235.26,82-235.26,82C-6.47,319.61,127.82,486.27,127.82,486.27s118.3-47.13,272.3-42.1L612.36,449Z" fill="#fff" opacity="0.7"/><g clip-path="url(#f3a3ef72-fffc-474b-858a-4ec4349bcf7e)"><path d="M378.41,129H521.93a0,0,0,0,1,0,0v286.9a5.51,5.51,0,0,1-5.51,5.51h-138a4.83,4.83,0,0,1-4.83-4.83V133.79A4.83,4.83,0,0,1,378.41,129Z" fill="#0AA8A7"/><path d="M378.41,129H521.93a0,0,0,0,1,0,0v286.9a5.51,5.51,0,0,1-5.51,5.51h-138a4.83,4.83,0,0,1-4.83-4.83V133.79A4.83,4.83,0,0,1,378.41,129Z" fill="#fff" opacity="0.3"/><path d="M393.86,129h159a0,0,0,0,1,0,0v286.9a5.51,5.51,0,0,1-5.51,5.51H393.86a4.83,4.83,0,0,1-4.83-4.83V133.79A4.83,4.83,0,0,1,393.86,129Z" fill="#0AA8A7"/><path d="M393.86,129h159a0,0,0,0,1,0,0v286.9a5.51,5.51,0,0,1-5.51,5.51H393.86a4.83,4.83,0,0,1-4.83-4.83V133.79A4.83,4.83,0,0,1,393.86,129Z" fill="#fff" opacity="0.2"/><rect x="397.89" y="313.98" width="112.86" height="89.1" rx="5.28" fill="#fff" opacity="0.2"/><polygon points="373.57 248.1 373.57 333.8 493.89 128.96 445.17 128.96 373.57 248.1" fill="#fff" opacity="0.2"/><rect x="397.89" y="204.29" width="112.86" height="42.5" rx="5.28" fill="#fff" opacity="0.2"/><path d="M374.06,418.12,522,170.1V276.38l-88.2,144.89H378.92S377.11,422.11,374.06,418.12Z" fill="#fff" opacity="0.2"/><rect x="397.89" y="146.67" width="99.95" height="42.5" rx="5.28" fill="#fff" opacity="0.2"/><rect x="397.89" y="261.47" width="112.86" height="42.5" rx="5.28" fill="#fff" opacity="0.2"/><rect x="16.82" y="224.55" width="138.99" height="301.42" rx="7.85" fill="#0AA8A7"/><rect x="16.82" y="224.55" width="138.99" height="301.42" rx="7.85" opacity="0.2"/><rect x="16.82" y="224.55" width="126.46" height="293.75" rx="7.85" fill="#0AA8A7"/><path d="M155.81,262.94l-139,227.62v26.77S16.49,526,25.46,526H56.64l99.17-162.92Z" fill="#fff" opacity="0.2"/><polygon points="113.31 224.55 16.82 389.03 16.82 283.25 52.39 224.55 113.31 224.55" fill="#fff" opacity="0.2"/><rect x="33.78" y="240.87" width="92.44" height="26.85" rx="3.48" fill="#fff" opacity="0.2"/><rect x="33.83" y="283.44" width="92.44" height="26.85" rx="3.48" fill="#fff" opacity="0.2"/><rect x="33.81" y="326.02" width="92.44" height="26.85" rx="3.48" fill="#fff" opacity="0.2"/><rect x="33.85" y="368.6" width="92.44" height="26.85" rx="3.48" fill="#fff" opacity="0.2"/><rect x="35.34" y="411.17" width="92.44" height="26.85" rx="3.48" fill="#fff" opacity="0.2"/><rect x="35.38" y="453.75" width="92.44" height="26.85" rx="3.48" fill="#fff" opacity="0.2"/></g><path d="M127.82,486.27c-2.56-1.91-5-4-7.34-6.16s-4.65-4.38-6.88-6.67c-4.45-4.58-8.67-9.39-12.69-14.37S93.09,449,89.51,443.66c-1.83-2.62-3.51-5.34-5.25-8s-3.38-5.44-4.93-8.24A299.68,299.68,0,0,1,50.2,356.61a339.38,339.38,0,0,1-8-37.52,204.53,204.53,0,0,1-3.06-38.27c.33-25.6,4.54-51.29,13.62-75.32a189.71,189.71,0,0,1,17.13-34.41l2.64-4c.9-1.33,1.7-2.73,2.71-4l5.79-7.7c2-2.5,4.17-4.88,6.25-7.32s4.36-4.71,6.61-7c4.38-4.71,9.37-8.77,14.15-13.06l7.64-5.86c1.29-.95,2.51-2,3.85-2.88l4-2.66,4-2.67,2-1.33c.66-.45,1.34-.88,2.05-1.27l8.35-4.77c1.41-.78,2.77-1.64,4.21-2.34l4.32-2.11,8.65-4.22c2.95-1.26,5.92-2.45,8.89-3.68l4.44-1.83,2.23-.91,2.27-.78L184,87.57c3-1,6.06-2.11,9.15-3a356.1,356.1,0,0,1,37.4-8.8,370.07,370.07,0,0,1,38.11-4.92c3.2-.19,6.39-.49,9.6-.59L287.9,70l9.62,0,2.4,0,2.41.11,4.8.24a198.61,198.61,0,0,1,74.3,18.56c5.84,2.68,11.53,5.67,17.09,8.87s11,6.41,16.74,9.21a257.88,257.88,0,0,0,35.27,14.52c6,2,12.17,3.74,18.34,5.32l9.29,2.18,9.38,1.78a273,273,0,0,0,38,3.72l9.55,0c1.59,0,3.18,0,4.77-.08l4.76-.29,4.77-.28c1.59-.09,3.18-.17,4.75-.35,3.15-.32,6.3-.77,9.44-1.27a225.55,225.55,0,0,1,38.31-3,183.29,183.29,0,0,1,38.22,4.1,120.94,120.94,0,0,1,35.82,13.83,94.42,94.42,0,0,1,15.44,11.5A97.64,97.64,0,0,1,704.11,173,133.5,133.5,0,0,1,722.06,207a143.5,143.5,0,0,1,5.26,18.48,158.44,158.44,0,0,1,2.76,19,168.31,168.31,0,0,1,.41,19.19c-.19,3.2-.29,6.4-.65,9.58s-.56,6.37-1,9.54a288.29,288.29,0,0,1-8.31,37.42c-3.52,12.29-7.64,24.4-12.27,36.31q6.82-17.91,12-36.38a287,287,0,0,0,8-37.43c.45-3.15.68-6.33,1-9.51s.41-6.37.58-9.55a169.28,169.28,0,0,0-.55-19.11,158.45,158.45,0,0,0-2.87-18.88,143.73,143.73,0,0,0-5.35-18.31,133.05,133.05,0,0,0-17.93-33.54,97.56,97.56,0,0,0-12.64-14.18,92.09,92.09,0,0,0-15.3-11.29,119.08,119.08,0,0,0-35.44-13.52,180.43,180.43,0,0,0-37.88-3.91,223.11,223.11,0,0,0-38,3.16c-3.16.53-6.35,1-9.55,1.31-1.6.19-3.2.26-4.8.36l-4.8.29-4.8.29c-1.6.13-3.21.06-4.81.1l-9.62.06a275.62,275.62,0,0,1-38.26-3.7L477.75,131l-9.37-2.18c-6.21-1.6-12.38-3.33-18.47-5.34a259.51,259.51,0,0,1-35.57-14.6c-5.76-2.8-11.35-6-16.86-9.23s-11.15-6.13-16.93-8.77A196.9,196.9,0,0,0,307,72.57l-4.77-.23-2.38-.12-2.38,0-9.55-.06-9.55.29c-3.18.1-6.35.39-9.53.58A366,366,0,0,0,231,77.84a352.82,352.82,0,0,0-37.2,8.7c-3,.87-6.06,1.93-9.07,3l-9.05,3.08-2.26.77-2.21.9-4.42,1.81c-2.94,1.22-5.89,2.4-8.82,3.64l-8.58,4.18L145.06,106c-1.43.7-2.78,1.55-4.17,2.32L132.6,113a23.53,23.53,0,0,0-2,1.25l-2,1.32-4,2.63-4,2.64c-1.33.87-2.54,1.9-3.82,2.85l-7.58,5.79c-4.73,4.24-9.68,8.25-14,12.91-2.22,2.27-4.54,4.45-6.55,6.92s-4.19,4.78-6.19,7.25l-5.74,7.6c-1,1.24-1.8,2.63-2.7,3.94l-2.62,4a187.85,187.85,0,0,0-17.1,34c-9.1,23.78-13.39,49.28-13.81,74.73a202,202,0,0,0,2.89,38.05c.53,3.15,1,6.31,1.57,9.45l1.83,9.39,2.1,9.33c.74,3.1,1.57,6.18,2.34,9.28A299.14,299.14,0,0,0,79.8,427.14c1.53,2.8,3.23,5.5,4.85,8.25s3.38,5.42,5.19,8q5.31,8,11.28,15.47c4,5,8.16,9.84,12.58,14.45,2.21,2.3,4.48,4.55,6.83,6.71A95.59,95.59,0,0,0,127.82,486.27Z" fill="#0AA8A7"/><polygon points="273.21 457.37 95.96 548.89 452.49 548.89 482.43 456.98 273.21 457.37" fill="#0AA8A7"/><ellipse cx="333.43" cy="486.27" rx="81.12" ry="25.46" opacity="0.3"/><path d="M279.93,475.42s-.8,3.54.38,5.51c0,0,11.88,18.42,27.54,26.36,0,0,8.27,4.41,21.18-3.46,0,0,6-3.46-1.22-6.3l-36.74-13.86Z" fill="#2f2e41"/><path d="M355.76,490.86l-22.94-27.45v-2.59l19.85,22.33A19.75,19.75,0,0,0,367.26,490a18.83,18.83,0,0,0,8.28-1.85,3.38,3.38,0,0,0,2-4.57l.29.14c4.92,8.88-9.48,9.85-16.43,9.83A7.39,7.39,0,0,1,355.76,490.86Z" fill="#2f2e41"/><path d="M284.41,449v15.11s3.78,5.14,15.11,3.6V450.38Z" fill="#f9b499"/><path d="M334.59,444.81l.59,6.59s8.47,9.06,14.94.59V439.87Z" fill="#f9b499"/><path d="M169.76,129H313.28a0,0,0,0,1,0,0v286.9a5.51,5.51,0,0,1-5.51,5.51h-138a4.83,4.83,0,0,1-4.83-4.83V133.79A4.83,4.83,0,0,1,169.76,129Z" fill="#0AA8A7"/><path d="M169.76,129H313.28a0,0,0,0,1,0,0v286.9a5.51,5.51,0,0,1-5.51,5.51h-138a4.83,4.83,0,0,1-4.83-4.83V133.79A4.83,4.83,0,0,1,169.76,129Z" fill="#fff" opacity="0.3"/><path d="M185.21,129H328.74a0,0,0,0,1,0,0v286.9a5.51,5.51,0,0,1-5.51,5.51h-138a4.83,4.83,0,0,1-4.83-4.83V133.79A4.83,4.83,0,0,1,185.21,129Z" fill="#0AA8A7"/><path d="M185.21,129H328.74a0,0,0,0,1,0,0v286.9a5.51,5.51,0,0,1-5.51,5.51h-138a4.83,4.83,0,0,1-4.83-4.83V133.79A4.83,4.83,0,0,1,185.21,129Z" fill="#fff" opacity="0.2"/><rect x="189.25" y="313.98" width="112.86" height="89.1" rx="5.28" fill="#fff" opacity="0.2"/><polygon points="164.93 248.1 164.93 333.8 285.24 128.96 236.52 128.96 164.93 248.1" fill="#fff" opacity="0.2"/><rect x="189.25" y="204.29" width="112.86" height="42.5" rx="5.28" fill="#fff" opacity="0.2"/><path d="M165.41,418.12l147.9-248V276.38l-88.2,144.89H170.28S168.47,422.11,165.41,418.12Z" fill="#fff" opacity="0.2"/><rect x="189.25" y="146.67" width="99.95" height="42.5" rx="5.28" fill="#fff" opacity="0.2"/><rect x="189.25" y="261.47" width="112.86" height="42.5" rx="5.28" fill="#fff" opacity="0.2"/><path d="M354.09,208.51l4.45,14.08,15.54-5.09-4.3-12.24S364.41,209.91,354.09,208.51Z" fill="#f9b499"/><path d="M354.09,208.51l1.71,5.41s10.62-.22,14.65-6.76l-.67-1.9S365.23,209.79,354.09,208.51Z" fill="#f7a48b"/><path d="M327.33,183c-8.55.58-18.79-17.23-18.79-17.23l-1.41-25.42,2.67-1.58,18.4,16.95.35,11.68C335.16,181.38,327.33,183,327.33,183Z" fill="#f9b499"/><path d="M371.57,203.29c-5.14,7.3-17.48,5.22-17.48,5.22a28.48,28.48,0,0,1-4.16,16.34l-4.64,24.34-3.21,13c-29.63,5.6-54.62-6.57-54.62-6.57-4.16-2.08-.95-6.73-.95-6.73l13.28-29.78c-25.93,6.72-26.74-6.1-26.74-7.05s11.37-33.95,11.37-33.95c1.6-13.3,24.12-12.28,24.12-12.28s10.24,17.81,18.79,17.23c0,0,7.83-1.66,1.22-15.6l11.77.24a21.46,21.46,0,0,1,19.22,11.69l12.13,19.06A4.37,4.37,0,0,1,371.57,203.29Z" fill="#0AA8A7"/><path d="M299.79,219.09a13.48,13.48,0,0,0,1.51-.31,3.64,3.64,0,0,0,2.7-3.73l-1-18.71s2.73.48,7.21,19.22c0,0,7.05,30.91,31.87,28.83l4.11.1-4.11,17.68a98,98,0,0,1-54.62-6.57s-4.28-1.49-.95-6.73Z" opacity="0.2"/><path d="M356.13,276.87v57.46l-2.31,101.8c-.5,16.08-13.16,12.44-17,11-.69-.27-1.09-.46-1.09-.46a56.76,56.76,0,0,1-6-.84,2.16,2.16,0,0,1-1.74-1.92l-5-54.12V348c0,.5,0,1-.11,1.58l0,.22C321.78,361.22,315,384.5,315,384.5l-9,66.81c-.83,7.16-6.86,6.91-13,4.65a68.91,68.91,0,0,1-13.85-7.57C278.27,402.88,285,348,285,348c-9-80.22,2.48-92.44,2.48-92.44a119,119,0,0,0,14.89,4.89c32,7.69,46.51-1.71,46.51-1.71Z" fill="#2f2e41"/><path d="M287.31,304.28l1.17,47.55S286.53,433,293,456a68.91,68.91,0,0,1-13.85-7.57C278.27,402.88,285,348,285,348c-9-80.22,2.48-92.44,2.48-92.44a140.22,140.22,0,0,0,14.89,4.89l.72.87S287.89,272.78,287.31,304.28Z" opacity="0.2"/><path d="M322.91,349.62,323,348C323,348.54,323,349.05,322.91,349.62Z" fill="none" stroke="#ed1c24" stroke-miterlimit="10" stroke-width="0.25"/><path d="M336.83,447.1c-.69-.27-1.09-.46-1.09-.46a56.76,56.76,0,0,1-6-.84,2.16,2.16,0,0,1-1.74-1.92l-5-54.12V348l8-65.21c-.27,3.27-6.29,76.32-1.44,115.09Z" opacity="0.2"/><path d="M327.89,499.16c-2.94,2.5-12.13,9.11-22.38,4.3h0a23.13,23.13,0,0,1-4.62-2.95s-15.83-15.2-20.48-23.67a3.85,3.85,0,0,1-.47-1.79,46.21,46.21,0,0,1,1.51-12.33.76.76,0,0,1,1.35-.21c1.21,1.8,4.11,4.63,10.47,5.27a30,30,0,0,0,6.26-.06s2.11-.69,3.55,5.67c0,0,8.12,12.34,24.73,24.14A1,1,0,0,1,327.89,499.16Z" fill="#0AA8A7"/><path d="M305.51,503.46h0a23.13,23.13,0,0,1-4.62-2.95s-15.83-15.2-20.48-23.67a3.85,3.85,0,0,1-.47-1.79,46.21,46.21,0,0,1,1.51-12.33.76.76,0,0,1,1.35-.21c1.21,1.8,4.11,4.63,10.47,5.27C293,474.05,293.54,490.85,305.51,503.46Z" opacity="0.2"/><path d="M375.54,488.11a18.89,18.89,0,0,1-15.34.43,20.65,20.65,0,0,1-7.53-5.39l-19.85-22.33V455.6c-.23-5.79,2.35-4.19,2.35-4.19l4.47.17,10.47.41c1.51-1.44,3.06.73,4.07,2.73a29.82,29.82,0,0,0,4.26,6.2l17.09,19.42a10.26,10.26,0,0,1,2,3.2A3.38,3.38,0,0,1,375.54,488.11Z" fill="#0AA8A7"/><path d="M360.2,488.54a20.65,20.65,0,0,1-7.53-5.39l-19.85-22.33V455.6c-.23-5.79,2.35-4.19,2.35-4.19l4.47.17.2,3.12S347.34,481.78,360.2,488.54Z" opacity="0.2"/><path d="M96,548.89s-2.48,9.28,6.41,9.28H465.15l166.42-118.3L626,435.11,465.34,548.89l91.3-285.39,134.2-48.78H677.29L544.36,263.31,452.49,548.89Z" fill="#2f2e41"/><polygon points="430.08 242.31 438.63 159.04 516.97 130.85 506.58 217.03 430.08 242.31" fill="#fff"/><polygon points="443.31 220.84 449.44 167.88 459 164.63 453.69 217.34 443.31 220.84" fill="#0AA8A7"/><polygon points="462.43 177.6 472.11 173.35 467.48 212.2 457.24 216.32 462.43 177.6" fill="#2f2e41"/><polygon points="477.42 157.18 472.11 210.89 482.03 206.88 487.22 152.81 477.42 157.18" fill="#e6e7e8"/><polygon points="490.53 164.63 486.57 205.76 496.31 201.8 500.68 160.84 490.53 164.63" fill="#d1d3d4"/><path d="M826.65,340.56s-5.08,23.21-29.66,47.11l-.07.06c-1.89,1.85-3.92,3.7-6.06,5.54-17.78,15.32-44.06,30.17-82.64,38.62V402.81s11.4-14.1,20.08-21.31h0c.67-.56,1.33-1.08,2-1.54,0,0,.7-.84,2-2.26a133,133,0,0,1,40.3-29.12q3.07-1.43,6.33-2.67A91.76,91.76,0,0,1,826.65,340.56Z" fill="#0AA8A7"/><path d="M797,387.67l-.07.06-6.06,5.54s-41.4-1.24-48.43.19c0,0-23,16.71-34.21,27.46v-2.25s16.3-15.35,20.08-17.71V381.49c.67-.56,1.33-1.08,2-1.54,0,0,.7-.84,2-2.26l-2,22.33s21.08-17.24,37.18-26.45l5.15-25q3.07-1.43,6.33-2.67l-8.59,25.79s36.75-21.87,53.17-30.39c-3,1.83-66.72,41.32-77.64,49.87C745.86,391.17,790.34,386.48,797,387.67Z" fill="#fff"/><path d="M328.2,155.76l.2,6.73s-6.35.47-9.53-6.91Z" fill="#f7a48b"/><ellipse cx="327.33" cy="130.85" rx="20.19" ry="27.23" fill="#f9b499"/><path d="M350.69,123s3.7-10.09-10.21-19.39c0,0-15.41-19.06-33.34-4.07l-9,7.17-.05.1a6.1,6.1,0,1,0-5.36,9h.23c-3.67,6.35-11.49,24.17,7.73,36a3.36,3.36,0,0,0,3.15.21l4-1.85-.55-6.92L315.5,130s17.25,4.51,27.85-15.67A37.9,37.9,0,0,1,347.51,130s5.36-12-4-21.73C343.52,108.24,350.26,110.85,350.69,123Z" fill="#2f2e41"/><circle cx="303.39" cy="138.16" r="6.45" fill="#f9b499"/><path d="M287.46,255.6a14.56,14.56,0,0,0-2.22,4.74s40.91,11.47,49.66,2.6C334.9,262.94,312.64,266.07,287.46,255.6Z" fill="#2f2e41"/><path d="M287.46,255.6a14.56,14.56,0,0,0-2.22,4.74s40.91,11.47,49.66,2.6C334.9,262.94,312.64,266.07,287.46,255.6Z" opacity="0.4"/><path d="M348.21,225.79a2.79,2.79,0,0,0-2,2.68c0,6.86-.7,29.21-9.41,47,0,0-4.35,8,1.08,7.17l38.46-8.26s8.91-1.79,10.65-10.89c0,0,8.45-33.6,8.31-51.23a1.42,1.42,0,0,0-1.9-1.33C386.57,213.3,362.31,221.62,348.21,225.79Z" fill="#fff"/><path d="M394.06,227.7s5,20.37-2.85,25.85a1.77,1.77,0,0,1-2.77-1.19,4,4,0,0,1,.64-3s-1-4,1.57-5.58c0,0-2.95-5.08,2-6.86Z" fill="#f9b499"/><path d="M390.65,243.83a12.49,12.49,0,0,1,1.4-1.62l.72-.68c.25-.23.49-.48.83-.75a2.48,2.48,0,0,1-.77,2.22A2.74,2.74,0,0,1,390.65,243.83Z" fill="#f7a48b"/><path d="M389.08,249.41c.83-.52,1.55-.89,2.26-1.32.36-.2.71-.41,1.07-.63a11.75,11.75,0,0,1,1.19-.67,3.44,3.44,0,0,1-1.71,2.26,4.09,4.09,0,0,1-1.36.48A2.76,2.76,0,0,1,389.08,249.41Z" fill="#f7a48b"/><path d="M281.2,220.42s-3.41,12.91,4,16.39l47.65,25s17.6,8.69,26.07,3c0,0,5-1.08,4.56-3.47,0,0,4-2.17,0-4.35,0,0,2.14-2.6-7-2.6-8.67,0-12.48-4-11.48-9.6a.51.51,0,0,0-.7-.55,43.5,43.5,0,0,0-8.41,4.3,4.91,4.91,0,0,1-4.48.63c-6.36-2.29-22.45-9.4-31.2-25.2,0,0-1.66-1.11-.51-4.9C299.79,219.09,288.82,222.29,281.2,220.42Z" fill="#f9b499"/><path d="M363.55,257a5.65,5.65,0,0,1-2.12.84,11.34,11.34,0,0,1-2.25.19,10.33,10.33,0,0,1-4.35-1,18.7,18.7,0,0,1,2.22-.1c.73,0,1.44,0,2.16,0C360.65,257,362,257,363.55,257Z" fill="#f7a48b"/><path d="M363.52,261.36a16.8,16.8,0,0,1-5.1.83,17.18,17.18,0,0,1-2.58-.15,8.63,8.63,0,0,1-2.53-.68c1.74-.15,3.4-.23,5.09-.27A30.53,30.53,0,0,1,363.52,261.36Z" fill="#f7a48b"/><path d="M359,264.83a3.52,3.52,0,0,1-1.35.71,5.19,5.19,0,0,1-1.47.23,4.21,4.21,0,0,1-2.83-.94,21.62,21.62,0,0,1,2.82-.16A18.74,18.74,0,0,1,359,264.83Z" fill="#f7a48b"/><polygon points="556.64 263.5 465.34 548.89 625.95 435.11 653.84 319.21 690.84 214.72 556.64 263.5" fill="#0AA8A7"/><polygon points="556.64 263.5 465.34 548.89 625.95 435.11 653.84 319.21 690.84 214.72 556.64 263.5" opacity="0.2"/><rect x="569.24" y="277.34" width="138.99" height="301.42" rx="7.85" fill="#0AA8A7"/><rect x="569.24" y="277.34" width="138.99" height="301.42" rx="7.85" opacity="0.2"/><rect x="569.24" y="277.34" width="126.46" height="293.75" rx="7.85" fill="#0AA8A7"/><path d="M708.23,315.73l-139,227.61v26.77s-.33,8.65,8.64,8.65h31.18l99.17-162.92Z" fill="#fff" opacity="0.25"/><polygon points="665.73 277.33 569.24 441.81 569.24 336.03 604.81 277.33 665.73 277.33" fill="#fff" opacity="0.25"/><rect x="586.2" y="293.65" width="92.44" height="26.85" rx="3.48" fill="#fff" opacity="0.2"/><rect x="586.25" y="336.23" width="92.44" height="26.85" rx="3.48" fill="#fff" opacity="0.2"/><rect x="586.22" y="378.8" width="92.44" height="26.85" rx="3.48" fill="#fff" opacity="0.2"/><rect x="586.27" y="421.38" width="92.44" height="26.85" rx="3.48" fill="#fff" opacity="0.2"/><rect x="587.76" y="463.95" width="92.44" height="26.85" rx="3.48" fill="#fff" opacity="0.2"/><rect x="587.8" y="506.53" width="92.44" height="26.85" rx="3.48" fill="#fff" opacity="0.2"/><path d="M445.1,299.17l-22.28,36.64s15.21,20.58,36-10.92c0,0,21-34,11.14-61.25l-24.43,34-2.23-37.49S416.39,285,419,321.67Z" fill="#fff"/><path d="M445.53,297.67l-2.23-37.49S459.89,245,470,263.64Z" fill="#0AA8A7"/><path d="M708.23,301.29s11.33-68.2,84.52-93.23c0,0,22.2,91.68-84.52,170.74Z" fill="#0AA8A7"/><path d="M742.46,239s1.65,28.57,4,35.65c0,0,32.82-53.36,44.39-64.22,0,0-54.55,81.93-61.87,100.11l57.66-33.19L783.14,287l-55.55,25.94-19.36,39V345l7.08-14.64-7.08-14.64V302.27l8.26,26s20.53-40.84,29-50.9L736.86,245A81,81,0,0,1,742.46,239Z" fill="#fff"/></svg>