<svg id="e347f454-5eb2-4dfb-b70b-b40f86ba1cb0" data-name="Layer 1" xmlns="http://www.w3.org/2000/svg" width="865.76" height="682.89" viewBox="0 0 865.76 682.89"><circle cx="460.21" cy="389.84" r="241.51" fill="none" stroke="#bcbec0" stroke-linecap="round" stroke-linejoin="round" stroke-width="1.89"/><path d="M445.12,389.53,285.94,603.42a250.54,250.54,0,0,1-84-95.77Z" fill="#d1d3d4"/><line x1="341.08" y1="513.21" x2="355.75" y2="494.97" fill="none" stroke="#fff" stroke-linecap="round" stroke-linejoin="round" stroke-width="0.94"/><path d="M258.92,564.14a169.86,169.86,0,0,0,24.93,20.21l51.09-63.5" fill="none" stroke="#fff" stroke-linecap="round" stroke-linejoin="round" stroke-width="0.94"/><path d="M234.3,537.68s6.35,7.77,15.64,17.46" fill="none" stroke="#fff" stroke-linecap="round" stroke-linejoin="round" stroke-width="0.94"/><path d="M762.24,405.57a289,289,0,0,1-37.38,142.69L451.22,389.53l303.27-50.8C757,349.19,760,371,760,371A275.34,275.34,0,0,1,762.24,405.57Z" fill="#d1d3d4"/><path d="M741.9,473.55a198.75,198.75,0,0,0,5.52-21.9" fill="none" stroke="#fff" stroke-linecap="round" stroke-linejoin="round" stroke-width="0.94"/><path d="M674.27,501.45l46.84,22.71a338.4,338.4,0,0,0,17.8-41.51" fill="none" stroke="#fff" stroke-linecap="round" stroke-linejoin="round" stroke-width="0.94"/><line x1="641.07" y1="485.34" x2="665.94" y2="497.4" fill="none" stroke="#fff" stroke-linecap="round" stroke-linejoin="round" stroke-width="0.94"/><path d="M319.85,32.67c-72.41,18.07-161.66,96.7-161.66,96.7l.93.91L444,389.53Z" fill="#d1d3d4"/><line x1="248.42" y1="199.36" x2="276.14" y2="225.54" fill="none" stroke="#fff" stroke-linecap="round" stroke-linejoin="round" stroke-width="0.94"/><path d="M208.44,100a299.66,299.66,0,0,0-34,29.44l64.74,61.19" fill="none" stroke="#fff" stroke-linecap="round" stroke-linejoin="round" stroke-width="0.94"/><path d="M232.88,82.85s-7.28,4.55-17.56,12" fill="none" stroke="#fff" stroke-linecap="round" stroke-linejoin="round" stroke-width="0.94"/><path d="M317.65,146.81l6.09-2.79-1.29-7.33-6.75-.53a30.28,30.28,0,0,0-3.39-6.35l3.54-5.8-5.27-5.39-5.93,3.51a29.53,29.53,0,0,0-11.32-4.61l-1.67-6.75h-7.47l-1.7,6.75a29.71,29.71,0,0,0-6.75,2.11L270.41,115l-6.1,4.23,2.52,6.58a31.82,31.82,0,0,0-4.23,5.57l-7-.72-2.56,7,5.82,4a29.48,29.48,0,0,0-.42,5v2.11l-6.12,3.39,1.93,7.2,6.92-.11a28.41,28.41,0,0,0,3.81,6.05l-3.05,6.31,5.76,4.8,5.52-4a30.23,30.23,0,0,0,6.78,2.81l1.1,6.67,7.42.65,2.25-6.35a29.16,29.16,0,0,0,7.15-1.54l4.68,4.76,6.45-3.72-1.77-6.35a29.61,29.61,0,0,0,5-5.4l6.56,1.21,3.15-6.76-5.07-4.23A31.62,31.62,0,0,0,317.65,146.81Zm-11,0a18.61,18.61,0,1,1-18.6-18.6h0a18.58,18.58,0,0,1,18.58,18.58Z" fill="#fff" stroke="#bcbec0" stroke-linecap="round" stroke-linejoin="round" stroke-width="0.94"/><path d="M625.87,50l-37.08,9.5,9.38-37.08a38.12,38.12,0,1,0,27.7,27.52Z" fill="#d1d3d4"/><path d="M630.91,43.1c-3-11.85-14.22-23.47-26.1-26.43l-9.46,36.17Z" fill="#d1d3d4"/><path d="M333.31,455.62V374a5.33,5.33,0,0,0-5.33-5.33H316.17" fill="none" stroke="#d1d3d4" stroke-linecap="round" stroke-linejoin="round" stroke-dasharray="1.92 1.92"/><rect x="179.87" y="320.89" width="136.03" height="99.81" rx="6.35" fill="#ccc"/><rect x="193.16" y="332.17" width="35.81" height="26.56" rx="6.35" fill="#fff" opacity="0.3"/><rect x="192.84" y="374.46" width="109.02" height="7.41" fill="#fff" opacity="0.3"/><rect x="238.68" y="351.26" width="63.16" height="7.41" fill="#fff" opacity="0.3"/><rect x="238.68" y="331.51" width="63.16" height="7.41" fill="#fff" opacity="0.3"/><rect x="193.45" y="396.24" width="108.7" height="7.3" fill="#fff" opacity="0.3"/><circle cx="333.1" cy="456.83" r="5.5" fill="#ccc"/><line x1="586.29" y1="304.83" x2="588.28" y2="304.83" fill="none" stroke="#263238" stroke-linecap="round" stroke-linejoin="round" stroke-width="0.94"/><path d="M592.35,304.87h14.49a7.14,7.14,0,0,0,7.12-7.11V175.19a7.1,7.1,0,0,1,7.09-7.13h25.67" fill="none" stroke="#d1d3d4" stroke-linecap="round" stroke-linejoin="round" stroke-dasharray="1.92 1.92"/><rect x="653.81" y="118.91" width="136.03" height="99.81" rx="6.35" fill="#ccc"/><rect x="669.11" y="130.17" width="108.66" height="26.56" rx="6.35" fill="#fff" opacity="0.3"/><rect x="673.07" y="172.71" width="104.26" height="7.17" fill="#fff" opacity="0.3"/><rect x="673.07" y="187.06" width="104.26" height="7.17" fill="#fff" opacity="0.3"/><circle cx="590.97" cy="304.83" r="5.5" fill="#ccc"/><circle cx="655.29" cy="167.59" r="5.5" fill="#ccc"/><rect x="75.93" y="651.58" width="697.4" height="14.65" rx="6.28" fill="#ccc"/><path d="M429.75,483.2l-12.21,37.41s18,48.6,42.87,53.76c0,0,28.76-30.79,25.4-73.12Z" fill="#f9b499"/><path d="M257.35,624.4l89.82-107,66.19-12.83s13,47.11,46.68,66.61c0,0,22.45-24.23,19.5-63.82,0,0,65,6.5,102.82,33.68v110.5h-325S246.94,636.8,257.35,624.4Z" fill="#0AA8A7"/><path d="M353.78,554.37s-1.2,46.18-8,58.52l-47-8.36,62.5,15.92,1.39,2.59v-4.38L351,615.47S357.36,569.3,353.78,554.37Z" opacity="0.2"/><path d="M347.17,517.44s12.16,16.7,37.26,15.74c0,0,10.35,16.29,15.52,20.12,0,0,35.25,13,51.35,15.52,0,0-43.88-7.28-52.88-13.6l-14.75-19S351.1,534.08,347.17,517.44Z" opacity="0.2"/><polygon points="464.89 612.24 457.54 569.69 460.04 571.22 464.89 612.24" opacity="0.2"/><path d="M379.76,467.46C377.84,469.3,367,481,360.91,514.78l31.27-6.06v23.76l12.15,10.65s3.58-15.83,3.58-14.63v16.32l4,2s12.35-51.8,42.2-105.49c0,0,18.65,3.25,25.08-9.15,0,0-4.38,12.73-10,15.52l19.51,8.76a10.74,10.74,0,0,0,5.57-8s.8,9.15-2.39,10.74L510.61,468s-18.54,29-31.07,39.41l9,1.17.22,8.87h17.91l1.22-5.4s24.31,6,29.79,7.82c0,0-11.58-14.36-11.18-62.48a16.37,16.37,0,0,1,1.94-7.6,49.77,49.77,0,0,0-.16-47.77,59.55,59.55,0,0,0-35.79-29c-14.56-4.24-34.85-4.71-54.68,13,0,0-8.89,8-19,26.67,0,0-26.52,41.22-37.27,53C381,466.3,380.36,466.88,379.76,467.46Z" fill="#2f2e41"/><path d="M431.67,487.37s24.34,47.74,47.87,20c0,0,12.76-10.35,31.07-39.41l-18.71-8.76s3.59-1.79,2.39-10.74c0,0-.79,5.77-5.57,8l-19.51-8.76s5-1.79,10-15.52c0,0-5.38,11.54-25.08,9.15C454.09,441.32,438.11,470.9,431.67,487.37Z" fill="#f9b499"/><path d="M429.75,492.09s9.81,29.44,31.46,30.83c0,0,12.73.79,18.33-15.52,0,0-8.53,12.93-22.27,7.36,0,0-14.59-5.22-25.6-27.39Z" fill="#f9ab93"/><path d="M421.56,514.89l-2.12,6.29s15.3,36.83,40.6,50v-4.71S436.87,553.09,421.56,514.89Z" fill="#f9ab93"/><rect x="466.52" y="517.44" width="202.28" height="134.14" rx="7.54" fill="#2f2e41"/><rect x="395.67" y="651.58" width="267.78" height="10.22" fill="#2f2e41"/><rect x="395.67" y="651.58" width="267.78" height="10.22" opacity="0.2"/><polygon points="424.33 649.39 463.34 649.39 457.96 632.48 466.52 634.67 466.52 623.12 450.6 623.16 424.33 629.69 420.73 649.43 424.33 649.39" fill="#f9ab93"/><path d="M436.14,644.62c-6-4-12.27,1.79-14.05,3.66a7.63,7.63,0,0,1-1.29,1.11l-.07,0a13.36,13.36,0,0,1-7.72,2.06l-16.95-.5c-.13-.8-1.32-.93-1.32-.93l-42.25,1.52c-7.72-20.5,10.24-28.54,10.24-28.54l44.48,5.06s10.55,1.19,18.71-2.19c0,0,15.13-8.48,24.68-2.75l15.92,7.73v10.54l-4.18-2.78,8.36,12.93h-9s-11.54-18.51-28.66-19.7A32.53,32.53,0,0,1,451,651.58h-9.36S438.13,646,436.14,644.62Z" fill="#f9b499"/><circle cx="567.8" cy="582.62" r="17.51" opacity="0.2"/></svg>